<svg width="207" height="62" viewBox="0 0 207 62" fill="none" xmlns="http://www.w3.org/2000/svg">
<g clip-path="url(#clip0_584_3740)">
<path d="M50.5745 19.9974C52.3526 19.9974 54.108 19.9233 55.8519 20.0431C56.3022 20.0431 56.8151 20.6134 57.1399 21.0355C59.3341 23.9615 61.4827 26.9161 63.6484 29.8593C63.8308 30.1102 64.0416 30.3498 64.3266 30.7091L65.4664 29.2375C67.615 26.5054 69.7693 23.7847 71.9065 21.0412C72.1264 20.6965 72.4367 20.4189 72.8036 20.2389C73.1705 20.0588 73.5798 19.9832 73.9867 20.0203C75.1674 20.0887 76.351 20.0887 77.5316 20.0203C78.3124 20.0203 78.4948 20.2997 78.4948 21.0298C78.4568 27.2697 78.4454 33.5097 78.4606 39.7496C78.4606 40.6793 78.1129 40.9246 77.2694 40.8903C76.0897 40.8504 74.9043 40.8504 73.7246 40.8903C72.9381 40.9246 72.7614 40.5881 72.7671 39.8751C72.807 36.3559 72.8127 32.8423 72.8241 29.3288C72.8241 29.0607 72.7956 28.7869 72.7728 28.2337C72.2029 28.958 71.7754 29.4657 71.3651 29.9847C69.6553 32.175 67.9456 34.3881 66.1617 36.5555C64.7768 38.2666 63.8251 38.2096 62.4744 36.4813C60.5366 34.0021 58.5932 31.5305 56.6441 29.0664C56.4959 28.8782 56.3192 28.7014 56.0229 28.3763C55.983 28.7983 55.9317 29.0607 55.9317 29.3174C55.9317 32.7397 55.9032 36.2018 55.9716 39.6469C55.9716 40.7021 55.6353 41.0215 54.6209 40.9474C53.5152 40.8675 52.3982 40.9075 51.2869 40.9474C50.66 40.9474 50.375 40.7478 50.375 40.0861C50.4035 33.5553 50.4092 27.0302 50.4263 20.5051C50.4585 20.3313 50.5082 20.1612 50.5745 19.9974Z" fill="url(#paint0_linear_584_3740)"/>
<path d="M35.192 19.6952C37.0044 19.8834 38.8395 19.9633 40.6234 20.2656C44.7097 21.0185 47.1945 23.5566 48.2204 27.5322C48.7566 29.5713 48.7937 31.7098 48.3287 33.7664C47.5308 37.4111 45.3081 39.8808 41.7632 40.9132C37.8123 42.06 33.6244 42.1112 29.6467 41.0615C25.2698 39.9207 22.5057 36.3331 22.3347 31.8043C22.1831 29.8306 22.4772 27.848 23.1953 26.0036C24.905 22.0109 28.1535 20.4595 32.1715 20.0032C33.1688 19.8891 34.1719 19.8777 35.1749 19.8149L35.192 19.6952ZM35.4656 24.8628L35.4143 25.0624C34.6677 25.1024 33.9097 25.1081 33.1688 25.1879C30.3477 25.4902 28.5411 27.0873 28.2846 29.6197C28.2137 30.5716 28.252 31.5285 28.3986 32.4716C28.4869 33.2262 28.7886 33.94 29.2681 34.529C29.7476 35.118 30.3851 35.5579 31.1057 35.7969C33.7097 36.7692 36.5571 36.8772 39.2271 36.1049C41.2731 35.5345 42.4813 33.7664 42.6466 31.502C42.8289 28.5874 41.9627 26.5911 39.8312 25.7982C38.4406 25.2849 36.9189 25.1651 35.4485 24.8628H35.4656Z" fill="url(#paint1_linear_584_3740)"/>
<path d="M103.492 20.2427C102.59 21.2458 101.751 22.303 100.978 23.4083C100.044 24.9426 98.8182 25.3761 97.0629 25.2791C93.9853 25.1194 90.8964 25.2449 87.8188 25.205C87.0551 25.205 86.7246 25.3704 86.7303 26.2145C86.7303 28.0683 86.7303 28.0683 88.5198 28.0568L99.8042 27.9713H101.286C100.243 29.7281 99.3881 31.2338 98.4364 32.6826C98.3053 32.8879 97.7867 32.9108 97.4504 32.9108C94.2589 32.9108 91.073 32.9108 87.8815 32.9108H86.7417C86.7417 33.7834 86.7417 34.5934 86.7417 35.4033C86.7417 36.2132 87.3572 35.9737 87.7675 35.9737C91.6372 35.9737 95.5127 35.9737 99.3824 35.9737H100.91C100.91 37.508 100.944 38.9283 100.864 40.3428C100.864 40.5538 100.294 40.9132 99.9524 40.9132C98.0545 40.9702 96.1567 40.9474 94.2532 40.9531C90.2637 40.9531 86.2287 40.9531 82.2108 40.9531C81.2761 40.9531 80.9 40.7706 80.9114 39.7097C80.9741 33.3671 80.957 27.0188 80.9684 20.6705C80.9816 20.5321 81.0045 20.3949 81.0368 20.2598L103.492 20.2427Z" fill="url(#paint2_linear_584_3740)"/>
<path d="M127.776 40.9588C125.713 40.9588 123.644 40.9588 121.581 40.9588C121.245 40.8753 120.952 40.6726 120.754 40.3884C119.478 38.8826 118.241 37.3483 116.959 35.8254C116.738 35.553 116.422 35.3739 116.075 35.3235C113.744 35.3235 111.414 35.3235 109.088 35.3691C108.944 35.4129 108.807 35.4742 108.678 35.5516C108.678 36.9719 108.638 38.4377 108.678 39.8979C108.706 40.685 108.467 40.993 107.652 40.9588C106.398 40.9075 105.139 40.9588 103.885 40.9588C103.361 40.9588 103.081 40.7991 103.087 40.2287C103.115 37.3198 103.127 34.4166 103.15 31.5134C103.192 31.3517 103.251 31.1949 103.326 31.0456H110.781C113.186 31.0456 115.585 31.0456 117.99 31.0456C119.894 31.0456 121 29.9049 121 27.9428C121 26.1575 119.86 25.1651 117.939 25.1765C112.776 25.1765 107.618 25.1765 102.454 25.2107C102.221 25.2107 101.987 25.1594 101.423 25.0966C102.87 23.3855 104.141 21.874 105.464 20.3967C105.629 20.2142 106.068 20.2256 106.375 20.2256C110.536 20.2256 114.694 20.2484 118.851 20.294C122.686 20.294 125.388 22.0052 126.345 25.0681C127.337 28.2451 127.172 32.4431 123.587 34.7645C123.439 34.8615 123.308 34.9812 123.051 35.1809L127.901 40.5652L127.776 40.9588Z" fill="url(#paint3_linear_584_3740)"/>
<path d="M188.073 41.2897C186.723 41.2029 185.37 41.2029 184.021 41.2897C182.06 41.5635 180.789 40.9018 180.157 39.0082C179.735 37.7533 178.874 37.4682 177.598 37.5195C174.885 37.6279 172.166 37.5537 169.089 37.5537C169.497 36.9308 169.841 36.2676 170.115 35.5745C170.724 33.2131 172.326 32.7568 174.463 33.0819C175.33 33.1434 176.201 33.1434 177.068 33.0819C175.734 30.6692 174.469 28.3934 173.078 25.9237C172.805 26.4428 172.617 26.8021 172.423 27.1614C170.048 31.5837 167.664 35.9985 165.27 40.4056C165.111 40.6965 164.803 41.1129 164.552 41.1186C162.637 41.1813 160.717 41.1528 158.522 41.1528C159.189 39.8694 159.725 38.7971 160.289 37.7305C162.877 32.8937 165.453 28.0341 168.091 23.2372C168.573 22.2803 169.226 21.42 170.018 20.6991C172.52 18.6457 175.905 19.3187 177.569 22.1706C179.649 25.7298 181.655 29.3289 183.673 32.928C184.915 35.1467 186.118 37.394 187.332 39.6299C187.56 40.1204 187.731 40.5425 188.073 41.2897Z" fill="url(#paint4_linear_584_3740)"/>
<path d="M23.4802 20.1343C22.7906 21.9652 21.9927 23.6535 20.5166 24.9084C20.0731 25.1386 19.5707 25.23 19.0747 25.1708C16.4246 25.1708 13.7745 25.1708 11.0958 25.1708C7.77891 25.1708 6.09765 26.7735 6.01786 30.0874C5.97101 31.3322 6.12497 32.5763 6.4738 33.7721C7.08931 35.7456 8.81616 36.2817 10.657 36.3273C13.5066 36.4015 16.3904 36.3274 19.2571 36.3787C19.7733 36.4139 20.2759 36.5603 20.7303 36.808C21.1847 37.0557 21.5803 37.3988 21.8899 37.8137C22.1995 38.2287 22.4158 38.7057 22.5241 39.2121C22.6323 39.7185 22.6299 40.2424 22.517 40.7478C22.4397 40.9094 22.3239 41.0496 22.1798 41.156C22.0357 41.2624 21.8677 41.3318 21.6906 41.3581C17.325 41.3581 12.9481 41.5064 8.5825 41.2212C3.83508 40.9189 0.683428 37.6107 0.113509 32.8538C-0.274035 29.6368 -0.0118685 26.534 2.00564 23.8304C3.92627 21.258 6.62768 20.1172 9.73943 20.0374C14.105 19.929 18.4763 19.986 22.8475 19.9746C23.0632 20.0069 23.2751 20.0604 23.4802 20.1343Z" fill="url(#paint5_linear_584_3740)"/>
<path d="M143.164 20.3853C145.204 20.3853 147.244 20.3853 149.285 20.3853C149.98 20.3853 150.134 20.6362 150.242 21.3093C150.493 22.9577 149.758 24.0756 148.532 24.954C148.12 25.2175 147.642 25.358 147.153 25.359C144.303 25.359 141.42 25.359 138.553 25.359C135.931 25.359 134.415 26.7735 134.301 29.42C134.255 30.459 134.285 31.4999 134.393 32.5343C134.621 34.8558 136.102 36.1619 138.507 36.1562C141.927 36.1562 145.386 36.1562 148.829 36.0706C149.758 36.0706 150.117 36.2874 150.043 37.257C149.983 38.26 149.983 39.2657 150.043 40.2686C150.043 40.8789 149.923 41.1983 149.228 41.1983C145.392 41.1983 141.556 41.301 137.727 41.1983C134.438 41.09 131.594 39.9207 129.685 37.0003C127.337 33.4127 127.821 26.1061 130.614 23.3113C132.405 21.5224 134.82 20.4999 137.35 20.4594C139.282 20.3796 141.22 20.4594 143.158 20.4594L143.164 20.3853Z" fill="url(#paint6_linear_584_3740)"/>
<path d="M69.2108 15.6625C66.7772 15.6625 64.6001 15.7138 62.4344 15.6226C62.0013 15.6226 61.5397 15.0522 61.1692 14.7043C58.2797 11.7668 55.4244 8.78947 52.5179 5.86914C49.9076 3.2397 46.7503 3.20546 44.0432 5.77786C40.8174 8.84079 37.643 11.9494 34.4344 15.0237C34.1898 15.2766 33.8659 15.4377 33.5168 15.48C31.5506 15.48 29.5787 15.3944 27.6067 15.3317C27.3831 15.2855 27.1652 15.2147 26.957 15.1206C27.299 14.6929 27.5269 14.3164 27.8575 13.9799C32.0749 9.63362 36.2942 5.28735 40.5154 0.941076C40.7574 0.660334 41.059 0.437281 41.3982 0.288261C41.7374 0.139241 42.1056 0.06802 42.4759 0.0798007C45.9923 0.0798007 49.503 -3.81451e-05 53.0137 0.0227769C53.6005 0.0137129 54.1709 0.21616 54.6209 0.593154C59.3284 5.31588 63.9903 10.0842 68.6522 14.8526C68.8562 15.1098 69.0428 15.3804 69.2108 15.6625Z" fill="url(#paint7_linear_584_3740)"/>
<path d="M26.6494 46.7196C29.3052 46.7196 31.659 46.6682 34.0128 46.7595C34.4801 46.7595 34.9873 47.3298 35.3806 47.6949C38.2302 50.4954 41.0285 53.3017 43.7983 56.1536C46.796 59.2393 50.0161 59.3192 53.0423 56.2505C55.8615 53.3948 58.6503 50.5087 61.4087 47.5922C61.7252 47.206 62.1292 46.9011 62.5872 46.7026C63.0451 46.5042 63.5438 46.4181 64.0418 46.4515C65.7515 46.5427 67.4613 46.4515 69.171 46.4515L69.2907 46.7595C68.7778 47.3299 68.2762 47.9002 67.7405 48.4364C63.5687 52.6286 59.3798 56.8038 55.2023 60.9847C54.9141 61.299 54.5607 61.5466 54.167 61.7101C53.7732 61.8736 53.3486 61.9492 52.9226 61.9315C49.412 61.8859 45.8956 61.9315 42.3849 61.8916C41.8715 61.8661 41.3825 61.6647 41 61.3212C36.4862 56.8152 31.9915 52.2902 27.5157 47.7462C27.282 47.5466 27.0826 47.25 26.6494 46.7196Z" fill="url(#paint8_linear_584_3740)"/>
<path d="M206.994 36.4814C206.225 38.0214 205.615 39.3333 204.897 40.6223C204.769 40.7985 204.603 40.9441 204.412 41.0486C204.221 41.1531 204.009 41.214 203.791 41.2269C199.992 41.2763 196.192 41.2877 192.393 41.2611C189.919 41.2611 187.788 38.9796 187.737 36.1277C187.651 31.0742 187.737 26.0149 187.702 20.9614C187.702 20.2826 188.022 20.1001 188.631 20.1058C189.737 20.1058 190.854 20.1343 191.96 20.0716C192.832 20.0203 193.134 20.2941 193.1 21.2124C193.054 25.3362 193.1 29.46 193.1 33.5838C193.1 35.8653 193.727 36.4357 195.949 36.4357C199.209 36.4357 202.469 36.4072 205.735 36.3958C206.122 36.4015 206.464 36.4471 206.994 36.4814Z" fill="url(#paint9_linear_584_3740)"/>
<path d="M16.3678 15.1036L16.7725 14.9838C15.5985 14.4533 15.3648 12.7022 16.3678 11.4018C16.9458 10.7187 17.5603 10.0676 18.2087 9.4511C20.9614 6.59922 23.7255 3.8215 26.4611 0.986724C26.7337 0.68373 27.0709 0.445918 27.4478 0.290916C27.8246 0.135914 28.2314 0.0676814 28.6382 0.0912281C31.1401 0.131154 33.6478 0.0912295 36.1554 0.0570068C36.4233 0.0570068 36.6911 0.0969124 37.2497 0.142543C36.1098 1.2833 35.215 2.27577 34.2576 3.22259C31.1534 6.29122 28.036 9.34845 24.9052 12.3943C23.982 13.2955 23.0131 14.1453 22.0271 14.9723C21.7343 15.2195 21.3717 15.369 20.9899 15.4001C19.4625 15.4458 17.9294 15.4001 16.3963 15.4001L16.3678 15.1036Z" fill="url(#paint10_linear_584_3740)"/>
<path d="M12.8 46.7196C15.7636 46.7196 18.7214 46.7196 21.6793 46.7196C22.0291 46.7676 22.3524 46.9324 22.5969 47.1873C27.3272 51.8644 32.0499 56.5529 36.7651 61.2528C36.8622 61.39 36.9443 61.5373 37.0101 61.692C36.8166 61.7793 36.611 61.837 36.4003 61.8631C33.8243 61.8232 31.2711 61.8232 28.6722 61.6749C27.9118 61.6121 27.1884 61.3197 26.5977 60.8364C25.9232 60.1466 25.311 59.3984 24.7683 58.6005C24.6885 58.5036 24.4833 58.515 24.3693 58.4294C24.08 58.2572 23.8249 58.0329 23.6171 57.7678C22.6197 56.1593 21.7762 54.4311 20.6307 52.9367C19.9268 52.1323 19.0132 51.5398 17.992 51.2256C16.1511 50.6153 15.0626 49.138 13.6891 47.9858C13.3518 47.6728 13.0339 47.3395 12.7373 46.9877L12.8 46.7196Z" fill="url(#paint11_linear_584_3740)"/>
<path d="M158.096 30.7148C158.096 33.8291 158.096 36.949 158.096 40.069C158.096 40.8903 157.856 41.2097 156.99 41.2097C155.776 41.1413 154.551 41.1641 153.337 41.2097C152.676 41.2097 152.357 41.0044 152.362 40.2857C152.362 33.9431 152.362 27.5986 152.362 21.2522C152.362 20.5564 152.682 20.4081 153.274 20.4081C154.568 20.4081 155.856 20.4081 157.144 20.3339C157.879 20.294 158.147 20.5393 158.141 21.3036C158.107 24.4578 158.141 27.6119 158.141 30.7661L158.096 30.7148Z" fill="url(#paint12_linear_584_3740)"/>
<path d="M7.98412 13.7576L8.1437 11.727C6.58782 11.2137 6.19458 10.2269 7.32302 8.87513C9.12966 6.66777 11.2612 4.7285 13.0222 2.47551C14.6009 0.439265 16.5215 -0.0797717 18.9095 0.16549C20.0789 0.22542 21.2507 0.22542 22.4202 0.16549L22.5911 0.456354L8.48565 14.0256L7.98412 13.7576Z" fill="url(#paint13_linear_584_3740)"/>
<path d="M12.8857 52.9994C14.2364 54.5793 16.5104 55.5205 16.499 58.2697C14.4302 56.9578 13.0339 55.4064 12.8857 52.9994Z" fill="url(#paint14_linear_584_3740)"/>
<path d="M19.3484 59.9694L17.3936 57.7678L17.5816 57.551L18.6132 58.5891C18.9551 58.9427 19.2914 59.3078 19.6276 59.6671L19.3484 59.9694Z" fill="url(#paint15_linear_584_3740)"/>
<path d="M14.9323 0H22.9339L7.54611 15.4002H0.570312L14.9323 0Z" fill="url(#paint16_linear_584_3740)"/>
<path d="M27.0372 0H37.2957L22.1131 15.4002H11.752L27.0372 0Z" fill="url(#paint17_linear_584_3740)"/>
<path d="M62.1208 15.4002L51.8623 5.33872C51.8623 5.33872 48.7847 1.64268 44.8865 5.33872C40.9883 9.03477 34.0125 15.4002 34.0125 15.4002H26.6035L41.581 0H53.8912L69.0738 15.4002H62.1208Z" fill="url(#paint18_linear_584_3740)"/>
<path d="M0.570312 46.8165H7.34094L22.1132 61.806H15.3426L0.570312 46.8165Z" fill="url(#paint19_linear_584_3740)"/>
<path d="M11.752 46.8165H22.1131L37.2957 61.806H26.6268L11.752 46.8165Z" fill="url(#paint20_linear_584_3740)"/>
<path d="M34.2183 46.8165L43.8613 56.0566C43.8613 56.0566 48.9905 61.19 52.6836 56.0566L62.3266 46.8165H69.0745L54.3022 61.806H41.3992L26.627 46.8165H34.2183Z" fill="url(#paint21_linear_584_3740)"/>
</g>
<defs>
<linearGradient id="paint0_linear_584_3740" x1="64.4349" y1="19.9747" x2="64.4349" y2="40.9576" gradientUnits="userSpaceOnUse">
<stop stop-color="#001BB7"/>
<stop offset="0.772727" stop-color="#368DD9"/>
</linearGradient>
<linearGradient id="paint1_linear_584_3740" x1="35.4739" y1="19.6952" x2="35.4739" y2="41.8127" gradientUnits="userSpaceOnUse">
<stop stop-color="#001BB7"/>
<stop offset="0.772727" stop-color="#368DD9"/>
</linearGradient>
<linearGradient id="paint2_linear_584_3740" x1="92.2013" y1="20.2427" x2="92.2013" y2="40.9531" gradientUnits="userSpaceOnUse">
<stop stop-color="#001BB7"/>
<stop offset="0.772727" stop-color="#368DD9"/>
</linearGradient>
<linearGradient id="paint3_linear_584_3740" x1="114.662" y1="20.2255" x2="114.662" y2="40.9614" gradientUnits="userSpaceOnUse">
<stop stop-color="#001BB7"/>
<stop offset="0.772727" stop-color="#368DD9"/>
</linearGradient>
<linearGradient id="paint4_linear_584_3740" x1="173.298" y1="19.5082" x2="173.298" y2="41.3489" gradientUnits="userSpaceOnUse">
<stop stop-color="#001BB7"/>
<stop offset="0.772727" stop-color="#368DD9"/>
</linearGradient>
<linearGradient id="paint5_linear_584_3740" x1="11.721" y1="19.9696" x2="11.721" y2="41.3966" gradientUnits="userSpaceOnUse">
<stop stop-color="#001BB7"/>
<stop offset="0.772727" stop-color="#368DD9"/>
</linearGradient>
<linearGradient id="paint6_linear_584_3740" x1="139.238" y1="20.3853" x2="139.238" y2="41.244" gradientUnits="userSpaceOnUse">
<stop stop-color="#001BB7"/>
<stop offset="0.772727" stop-color="#368DD9"/>
</linearGradient>
<linearGradient id="paint7_linear_584_3740" x1="48.0839" y1="0.0186768" x2="48.0839" y2="15.6769" gradientUnits="userSpaceOnUse">
<stop stop-color="#001BB7"/>
<stop offset="0.772727" stop-color="#368DD9"/>
</linearGradient>
<linearGradient id="paint8_linear_584_3740" x1="47.9701" y1="46.4445" x2="47.9701" y2="61.934" gradientUnits="userSpaceOnUse">
<stop stop-color="#001BB7"/>
<stop offset="0.772727" stop-color="#368DD9"/>
</linearGradient>
<linearGradient id="paint9_linear_584_3740" x1="197.346" y1="20.0657" x2="197.346" y2="41.2751" gradientUnits="userSpaceOnUse">
<stop stop-color="#001BB7"/>
<stop offset="0.772727" stop-color="#368DD9"/>
</linearGradient>
<linearGradient id="paint10_linear_584_3740" x1="26.493" y1="0.0570068" x2="26.493" y2="15.4204" gradientUnits="userSpaceOnUse">
<stop stop-color="#001BB7"/>
<stop offset="0.772727" stop-color="#368DD9"/>
</linearGradient>
<linearGradient id="paint11_linear_584_3740" x1="24.8737" y1="46.7196" x2="24.8737" y2="61.8631" gradientUnits="userSpaceOnUse">
<stop stop-color="#001BB7"/>
<stop offset="0.772727" stop-color="#368DD9"/>
</linearGradient>
<linearGradient id="paint12_linear_584_3740" x1="155.252" y1="20.3298" x2="155.252" y2="41.2097" gradientUnits="userSpaceOnUse">
<stop stop-color="#001BB7"/>
<stop offset="0.772727" stop-color="#368DD9"/>
</linearGradient>
<linearGradient id="paint13_linear_584_3740" x1="14.6335" y1="0.109253" x2="14.6335" y2="14.0256" gradientUnits="userSpaceOnUse">
<stop stop-color="#001BB7"/>
<stop offset="0.772727" stop-color="#368DD9"/>
</linearGradient>
<linearGradient id="paint14_linear_584_3740" x1="14.6924" y1="52.9994" x2="14.6924" y2="58.2697" gradientUnits="userSpaceOnUse">
<stop stop-color="#001BB7"/>
<stop offset="0.772727" stop-color="#368DD9"/>
</linearGradient>
<linearGradient id="paint15_linear_584_3740" x1="18.5106" y1="57.551" x2="18.5106" y2="59.9694" gradientUnits="userSpaceOnUse">
<stop stop-color="#001BB7"/>
<stop offset="0.772727" stop-color="#368DD9"/>
</linearGradient>
<linearGradient id="paint16_linear_584_3740" x1="11.7521" y1="0" x2="11.7521" y2="15.4002" gradientUnits="userSpaceOnUse">
<stop stop-color="#001BB7"/>
<stop offset="0.772727" stop-color="#368DD9"/>
</linearGradient>
<linearGradient id="paint17_linear_584_3740" x1="24.5238" y1="0" x2="24.5238" y2="15.4002" gradientUnits="userSpaceOnUse">
<stop stop-color="#001BB7"/>
<stop offset="0.772727" stop-color="#368DD9"/>
</linearGradient>
<linearGradient id="paint18_linear_584_3740" x1="47.8387" y1="0" x2="47.8387" y2="15.4002" gradientUnits="userSpaceOnUse">
<stop stop-color="#001BB7"/>
<stop offset="0.772727" stop-color="#368DD9"/>
</linearGradient>
<linearGradient id="paint19_linear_584_3740" x1="11.3418" y1="46.8165" x2="11.3418" y2="61.806" gradientUnits="userSpaceOnUse">
<stop stop-color="#001BB7"/>
<stop offset="0.772727" stop-color="#368DD9"/>
</linearGradient>
<linearGradient id="paint20_linear_584_3740" x1="24.5238" y1="46.8165" x2="24.5238" y2="61.806" gradientUnits="userSpaceOnUse">
<stop stop-color="#001BB7"/>
<stop offset="0.772727" stop-color="#368DD9"/>
</linearGradient>
<linearGradient id="paint21_linear_584_3740" x1="47.8507" y1="46.8165" x2="47.8507" y2="61.806" gradientUnits="userSpaceOnUse">
<stop stop-color="#001BB7"/>
<stop offset="0.772727" stop-color="#368DD9"/>
</linearGradient>
<clipPath id="clip0_584_3740">
<rect width="207" height="62" fill="white"/>
</clipPath>
</defs>
</svg>
